<?xml version="1.0" encoding="UTF-8"?>
<svg width="49px" height="72px" viewBox="0 0 49 72" version="1.1" xmlns="http://www.w3.org/2000/svg" xmlns:xlink="http://www.w3.org/1999/xlink">
    <!-- Generator: Sketch 61.2 (89653) - https://sketch.com -->
    <title>warning_icon</title>
    <desc>Created with Sketch.</desc>
    <g id="Mobile" stroke="none" stroke-width="1" fill="none" fill-rule="evenodd">
        <g id="EPFO_Something-went-wrong" transform="translate(-136.000000, -179.000000)" fill="#5C6BC0">
            <g id="popup" transform="translate(20.000000, 155.000000)">
                <g id="went_wrong" transform="translate(104.000000, 24.000000)">
                    <g id="archive" transform="translate(12.000000, 0.000000)">
                        <polygon id="Path" fill-rule="nonzero" points="1.81808036 12.8571429 12.8571429 12.8571429 12.8571429 1.81808036"></polygon>
                        <path d="M0,72 L48.8571429,72 L48.8571429,0 L15.4285714,0 L15.4285714,15.4285714 L0,15.4285714 L0,72 Z M27.9743304,29.7911552 L29.7924107,27.9730749 L33.4285714,31.6104911 L37.0647321,27.9730749 L38.8828125,29.7911552 L35.2466518,33.4285714 L38.8828125,37.0659876 L37.0647321,38.884068 L33.4285714,35.2466518 L29.7924107,38.884068 L27.9743304,37.0659876 L31.6104911,33.4285714 L27.9743304,29.7911552 Z M34.4286411,49.3248465 L35.6233259,50.5195313 L33.8052455,52.3376116 L32.6105608,51.1429269 C28.0885883,46.6328822 20.7685546,46.6328822 16.2465821,51.1429269 L15.0518973,52.3376116 L13.233817,50.5195313 L14.4285017,49.3248465 C19.9549385,43.8109653 28.9022043,43.8109653 34.4286411,49.3248465 Z M8.68861607,29.7911552 L10.5066964,27.9730749 L14.1428571,31.6104911 L17.7790179,27.9730749 L19.5970982,29.7911552 L15.9609375,33.4285714 L19.5970982,37.0659876 L17.7790179,38.884068 L14.1428571,35.2466518 L10.5066964,38.884068 L8.68861607,37.0659876 L12.3247768,33.4285714 L8.68861607,29.7911552 Z" id="Shape" fill-rule="nonzero"></path>
                    </g>
                </g>
            </g>
        </g>
    </g>
</svg>